Coordinates
version=1
nRows=17
nColumns=36
inDegrees=yes

Units are S.I. units (second, meters, Newtons, ...)
If the header above contains a line with 'inDegrees', this indicates whether rotational values are in degrees (yes) or radians (no).

endheader
time	pelvis_tilt	pelvis_list	pelvis_rotation	pelvis_tx	pelvis_ty	pelvis_tz	hip_flexion_r	hip_adduction_r	hip_rotation_r	knee_angle_r	knee_angle_r_beta	ankle_angle_r	subtalar_angle_r	mtp_angle_r	hip_flexion_l	hip_adduction_l	hip_rotation_l	knee_angle_l	knee_angle_l_beta	ankle_angle_l	subtalar_angle_l	mtp_angle_l	lumbar_extension	lumbar_bending	lumbar_rotation	arm_flex_r	arm_add_r	arm_rot_r	elbow_flex_r	pro_sup_r	arm_flex_l	arm_add_l	arm_rot_l	elbow_flex_l	pro_sup_l
      3.30000000	     -0.66962003	     -0.37445375	     -1.15371643	     -0.18589216	      0.91626634	     -0.57377366	      6.93730167	     -3.27450961	      2.05382968	     15.17834706	      0.26491213	      9.51723966	     -4.17518698	     -7.49999987	      6.62120649	     -5.67321239	      0.82980773	     14.76786050	      0.25774779	      7.45161501	     -9.17316427	     -7.49999987	    -12.25279881	      1.19398577	     -0.72571650	     32.45242744	    -17.30481915	      1.78160145	     71.81918845	     98.46124985	     31.22601356	    -16.27295302	     -1.16827705	     72.64831621	     87.96584093
      3.31000000	     -1.02704393	     -0.44407180	     -1.17117797	     -0.18780207	      0.91540650	     -0.57338671	      8.04361035	     -3.16391184	      2.13298267	     16.28268294	      0.28418643	      9.78976112	     -4.24899175	     -7.49999987	      7.70480327	     -5.80616492	      0.90369547	     15.83583883	      0.27638753	      7.64742061	     -9.46755520	     -7.49999987	    -12.32543760	      1.24666036	     -0.66468547	     32.94708002	    -17.49371751	      2.38696449	     72.12903949	     94.39517061	     31.70736372	    -16.48219247	     -0.59160121	     72.93908631	     85.19329595
      3.32000000	     -1.43918017	     -0.49449561	     -1.14523768	     -0.18976524	      0.91441010	     -0.57305488	      9.21539176	     -3.07248676	      2.27435716	     17.39337710	      0.30357170	     10.00857571	     -4.46631053	     -7.49999987	      8.86486046	     -5.89930352	      1.14469993	     16.92580646	      0.29541105	      7.92897055	     -9.70733055	     -7.49999987	    -12.39083800	      1.28579426	     -0.63508208	     33.35992131	    -17.48133913	      2.33393624	     72.47723180	     92.74323835	     32.15183535	    -16.55352767	     -0.40709545	     73.30997516	     83.33841710
      3.33000000	     -1.93038073	     -0.54042601	     -1.13995482	     -0.19184624	      0.91324357	     -0.57273498	     10.48518472	     -2.91544776	      2.80068003	     18.50961402	      0.32305371	      9.68544608	     -5.62483621	     -7.49999987	     10.11499099	     -5.99953501	      1.29266425	     17.99728436	      0.31411187	      8.04380147	     -9.93632917	     -7.49999987	    -12.36874014	      1.32340961	     -0.63130841	     33.94397501	    -17.55800378	      2.60160639	     72.17725870	     95.69426904	     32.65214795	    -16.70801123	     -0.11036780	     73.02146002	     85.87774429
      3.34000000	     -2.44069965	     -0.46970214	     -1.07910661	     -0.19399229	      0.91194140	     -0.57253476	     11.88687710	     -3.01850934	      2.68786841	     19.82182271	      0.34595607	     10.14112812	     -5.30335093	     -7.49999987	     11.38438991	     -5.96595958	      1.43335604	     19.04103369	      0.33232873	      8.33061304	     -9.87055557	     -7.49999987	    -12.36638035	      1.21935160	     -0.61350196	     34.40287870	    -17.59218719	      2.48516058	     72.16374771	     98.08653026	     33.27564289	    -16.66219440	     -0.03199080	     72.69643224	     88.51425317
      3.35000000	     -2.91206136	     -0.47543671	     -1.01628634	     -0.19625208	      0.91059377	     -0.57223707	     13.21088573	     -2.97566895	      2.85661645	     21.07928225	      0.36790288	     10.35644676	     -5.54764823	     -7.49999987	     12.61865769	     -6.00394113	      1.65096450	     20.06524202	      0.35020454	      8.40502970	    -10.19131443	     -7.49999987	    -12.42471407	      1.18740347	     -0.63116147	     35.01743586	    -17.65019478	      2.87070657	     72.46481714	     93.70493039	     33.88224992	    -16.80095721	      0.43250962	     73.09378269	     85.78234137
      3.36000000	     -3.34134146	     -0.49930944	     -0.92127562	     -0.19855367	      0.90917586	     -0.57191304	     14.52083450	     -2.96478855	      2.74254640	     22.39043997	      0.39078690	     10.63224557	     -5.57183641	     -7.49999987	     13.87597791	     -6.12835100	      1.59705128	     21.19893654	      0.36999124	      8.78797730	     -9.89326907	     -7.49999987	    -12.58647506	      1.15812828	     -0.69344489	     35.66536615	    -17.55503624	      2.81887417	     72.59590113	     92.77432939	     34.52170619	    -16.86413112	      0.60035544	     73.34955542	     85.01924594
      3.37000000	     -3.82617151	     -0.49925687	     -0.83134648	     -0.20098073	      0.90747643	     -0.57174981	     15.90415555	     -2.97230425	      2.77739022	     23.73461507	      0.41424718	     11.15547559	     -5.63005771	     -7.49999987	     15.24642418	     -6.19483466	      1.63328576	     22.44638020	      0.39176324	      9.42667984	     -9.65664592	     -7.49999987	    -12.73916222	      1.16577445	     -0.72479891	     36.32764210	    -17.67131908	      2.99336876	     72.82270819	     91.86036482	     35.21953178	    -17.05307508	      0.94706062	     73.59824808	     84.27076195
      3.38000000	     -4.41241566	     -0.46721005	     -0.71936122	     -0.20325760	      0.90564773	     -0.57163599	     17.38154839	     -3.12503109	      2.37076637	     24.94209864	      0.43532174	     10.91305588	     -5.15377654	     -7.49999987	     16.70961253	     -6.32402130	      1.25705397	     23.55656980	      0.41113970	      9.35725152	     -8.74804917	     -7.49999987	    -12.74925088	      1.12509625	     -0.77124594	     36.87465595	    -17.72327345	      3.06037316	     73.15648628	     89.95648573	     35.84435043	    -17.03218728	      1.08200222	     73.85758962	     82.88985537
      3.39000000	     -4.93505694	     -0.45435611	     -0.65490795	     -0.20602380	      0.90338392	     -0.57148172	     18.94282264	     -3.14024582	      2.47526198	     26.51290802	      0.46273754	     11.75473841	     -5.48922023	     -7.49999987	     18.22786950	     -6.36368336	      1.38212610	     25.00707329	      0.43645577	     10.29218012	     -8.94689877	     -7.49999987	    -12.97894197	      1.10398794	     -0.68758714	     37.61657946	    -18.19893870	      3.62806194	     73.66021207	     89.22168516	     36.76537794	    -17.34436097	      1.85212948	     74.14513474	     82.30386447
      3.40000000	     -5.51910058	     -0.44640464	     -0.51873058	     -0.20867851	      0.90103234	     -0.57140658	     20.51080191	     -3.21725319	      2.33235581	     27.93008563	      0.48747195	     12.00637690	     -5.50667580	     -7.49999987	     19.81906187	     -6.42382041	      1.40443141	     26.37128157	      0.46026569	     10.62575918	     -8.72145519	     -7.49999987	    -13.09879178	      1.06558168	     -0.70662485	     38.37204592	    -18.43345194	      3.88158848	     73.90047165	     88.43013130	     37.67145515	    -17.57201793	      2.46572304	     74.29726884	     81.67701101
      3.41000000	     -6.11207257	     -0.43532509	     -0.38724230	     -0.21133540	      0.89848760	     -0.57128321	     22.09471141	     -3.27706856	      2.26037679	     29.36707457	      0.51255214	     12.33652830	     -5.49666130	     -7.49999987	     21.42460179	     -6.48886335	      1.39946942	     27.75106461	      0.48434745	     11.06954972	     -8.40008613	     -7.49999987	    -13.21936508	      1.01977143	     -0.63634838	     39.11340373	    -18.64803294	      3.51568192	     73.33748385	     98.43945503	     38.75042780	    -17.68311151	      2.95501271	     73.31126820	     88.81811335
      3.42000000	     -6.67979105	     -0.38961789	     -0.28308327	     -0.21405283	      0.89574491	     -0.57113293	     23.69307977	     -3.36516107	      2.20789269	     30.84531587	      0.53835232	     12.60389724	     -5.78610875	     -7.49999987	     23.00304477	     -6.53754993	      1.26586120	     29.11155508	      0.50809249	     11.32803056	     -8.41532482	     -7.49999987	    -13.44194911	      0.95167218	     -0.68262101	     40.00141376	    -18.85280013	      3.75820747	     73.55900737	     98.44773184	     39.70943045	    -17.76465360	      3.14655490	     73.46043844	     88.87844339
      3.43000000	     -7.29216961	     -0.36279239	     -0.14372100	     -0.21679498	      0.89261763	     -0.57101476	     25.36048507	     -3.46978211	      2.10186331	     32.35987518	      0.56478637	     12.86104418	     -5.89820770	     -7.49999987	     24.65588106	     -6.60135257	      1.15940027	     30.51428731	      0.53257478	     11.70962966	     -8.23469006	     -7.49999987	    -13.62901370	      0.91560954	     -0.75136476	     40.93528081	    -19.10850859	      4.03642091	     73.74024283	     98.44886560	     40.72589916	    -17.83218102	      3.36961873	     73.54559753	     88.94389310
      3.44000000	     -7.91362077	     -0.35051723	      0.01357853	     -0.21958628	      0.88920941	     -0.57084836	     27.04572659	     -3.58743445	      1.93868693	     33.88849019	      0.59146573	     13.16057201	     -5.80165799	     -7.49999987	     26.32706243	     -6.67087685	      1.12677214	     31.92485022	      0.55719375	     12.23616856	     -7.87228019	     -7.49999987	    -13.81911451	      0.88943255	     -0.83162245	     41.94791759	    -19.34637900	      4.33628217	     73.87409218	     98.44611629	     41.81584880	    -18.07117659	      3.83635381	     73.61952067	     89.03352528
      3.45000000	     -8.31885443	     -0.31992259	      0.18530404	     -0.22233712	      0.88596250	     -0.57072004	     28.43884131	     -3.71767097	      1.83184594	     35.33251318	      0.61666869	     13.43088068	     -5.85469221	     -7.49999987	     27.73420734	     -6.71179089	      1.05409953	     33.27013587	      0.58067341	     12.60348547	     -7.76141638	     -7.49999987	    -14.33750316	      0.83538290	     -0.92559082	     43.07750958	    -19.53572616	      4.50796639	     74.04148724	     98.45539552	     43.02188622	    -18.37587989	      4.28496019	     73.80513927	     89.10409562
      3.46000000	     -9.10514077	     -0.32167477	      0.35239772	     -0.22522540	      0.88172656	     -0.57072850	     30.35988362	     -3.88442897	      1.54198045	     36.93582249	      0.64465171	     13.88994502	     -5.72454935	     -7.49999987	     29.65171110	     -6.79493415	      0.97576108	     34.76863525	      0.60682716	     13.24233826	     -7.37393548	     -7.49999987	    -14.35117270	      0.83094324	     -1.02082226	     44.13956541	    -19.83902988	      4.90262374	     74.09293824	     98.44314394	     44.18742057	    -18.80386197	      5.14714361	     73.87536986	     89.19124689
